<svg xmlns="http://www.w3.org/2000/svg" xmlns:svg="http://www.w3.org/2000/svg" xmlns:xlink="http://www.w3.org/1999/xlink" id="svg4362" version="1.1" viewBox="0 0 600 480"><metadata id="metadata4732"/><title id="title4364">Gnuplot</title><desc id="desc4366">Produced by GNUPLOT 5.0 patchlevel 3</desc><g id="gnuplot_canvas"><rect id="rect4369" width="600" height="480" x="0" y="0" fill="none"/><defs id="defs4371"><circle id="gpDot" r=".5" stroke-width=".5"/><path id="gpPt0" stroke="currentColor" stroke-width=".267" d="M-1,0 h2 M0,-1 v2"/><path id="gpPt1" stroke="currentColor" stroke-width=".267" d="M-1,-1 L1,1 M1,-1 L-1,1"/><path id="gpPt2" stroke="currentColor" stroke-width=".267" d="M-1,0 L1,0 M0,-1 L0,1 M-1,-1 L1,1 M-1,1 L1,-1"/><rect id="gpPt3" width="2" height="2" x="-1" y="-1" stroke="currentColor" stroke-width=".267"/><rect id="gpPt4" width="2" height="2" x="-1" y="-1" fill="currentColor" stroke="currentColor" stroke-width=".267"/><circle id="gpPt5" cx="0" cy="0" r="1" stroke="currentColor" stroke-width=".267"/><use id="gpPt6" fill="currentColor" stroke="none" xlink:href="#gpPt5"/><path id="gpPt7" stroke="currentColor" stroke-width=".267" d="M0,-1.33 L-1.33,0.67 L1.33,0.67 z"/><use id="gpPt8" fill="currentColor" stroke="none" xlink:href="#gpPt7"/><use id="gpPt9" stroke="currentColor" transform="rotate(180)" xlink:href="#gpPt7"/><use id="gpPt10" fill="currentColor" stroke="none" xlink:href="#gpPt9"/><use id="gpPt11" stroke="currentColor" transform="rotate(45)" xlink:href="#gpPt3"/><use id="gpPt12" fill="currentColor" stroke="none" xlink:href="#gpPt11"/><path id="gpPt13" stroke="currentColor" stroke-width=".267" d="M0,1.330 L1.265,0.411 L0.782,-1.067 L-0.782,-1.076 L-1.265,0.411 z"/><use id="gpPt14" fill="currentColor" stroke="none" xlink:href="#gpPt13"/><filter id="textbox" width="1" height="1" x="0" y="0" filterUnits="objectBoundingBox"><feFlood id="feFlood4390" flood-color="#fff" flood-opacity="1" result="bgnd"/><feComposite id="feComposite4392" in="SourceGraphic" in2="bgnd" operator="atop"/></filter><filter id="greybox" width="1" height="1" x="0" y="0" filterUnits="objectBoundingBox"><feFlood id="feFlood4395" flood-color="#d3d3d3" flood-opacity="1" result="grey"/><feComposite id="feComposite4397" in="SourceGraphic" in2="grey" operator="atop"/></filter></defs><g id="g4403" fill="none" stroke="currentColor" stroke-linecap="butt" stroke-linejoin="miter" stroke-width="1" color="gray"><path id="path4405" stroke="gray" stroke-dasharray="2 4" d="M60.5,417.0 L578.9,417.0" class="gridline"/></g><g id="g4407" fill="none" stroke="currentColor" stroke-linecap="butt" stroke-linejoin="miter" stroke-width="1" color="#000"><path id="path4409" stroke="#000" d="M60.5,417.0 L68.0,417.0 M578.9,417.0 L571.4,417.0"/><g id="g4411" fill="#000" stroke="none" font-family="Verdana" font-size="10" text-anchor="end" transform="translate(53.5,420.7)"><text id="text4413"><tspan id="tspan4415" font-family="Verdana">20</tspan></text></g></g><g id="g4419" fill="none" stroke="currentColor" stroke-linecap="butt" stroke-linejoin="miter" stroke-width="1" color="gray"><path id="path4421" stroke="gray" stroke-dasharray="2 4" d="M60.5,359.4 L578.9,359.4" class="gridline"/></g><g id="g4423" fill="none" stroke="currentColor" stroke-linecap="butt" stroke-linejoin="miter" stroke-width="1" color="#000"><path id="path4425" stroke="#000" d="M60.5,359.4 L68.0,359.4 M578.9,359.4 L571.4,359.4"/><g id="g4427" fill="#000" stroke="none" font-family="Verdana" font-size="10" text-anchor="end" transform="translate(53.5,363.1)"><text id="text4429"><tspan id="tspan4431" font-family="Verdana">40</tspan></text></g></g><g id="g4435" fill="none" stroke="currentColor" stroke-linecap="butt" stroke-linejoin="miter" stroke-width="1" color="gray"><path id="path4437" stroke="gray" stroke-dasharray="2 4" d="M60.5,301.9 L578.9,301.9" class="gridline"/></g><g id="g4439" fill="none" stroke="currentColor" stroke-linecap="butt" stroke-linejoin="miter" stroke-width="1" color="#000"><path id="path4441" stroke="#000" d="M60.5,301.9 L68.0,301.9 M578.9,301.9 L571.4,301.9"/><g id="g4443" fill="#000" stroke="none" font-family="Verdana" font-size="10" text-anchor="end" transform="translate(53.5,305.6)"><text id="text4445"><tspan id="tspan4447" font-family="Verdana">60</tspan></text></g></g><g id="g4451" fill="none" stroke="currentColor" stroke-linecap="butt" stroke-linejoin="miter" stroke-width="1" color="gray"><path id="path4453" stroke="gray" stroke-dasharray="2 4" d="M60.5,244.3 L578.9,244.3" class="gridline"/></g><g id="g4455" fill="none" stroke="currentColor" stroke-linecap="butt" stroke-linejoin="miter" stroke-width="1" color="#000"><path id="path4457" stroke="#000" d="M60.5,244.3 L68.0,244.3 M578.9,244.3 L571.4,244.3"/><g id="g4459" fill="#000" stroke="none" font-family="Verdana" font-size="10" text-anchor="end" transform="translate(53.5,248.0)"><text id="text4461"><tspan id="tspan4463" font-family="Verdana">80</tspan></text></g></g><g id="g4467" fill="none" stroke="currentColor" stroke-linecap="butt" stroke-linejoin="miter" stroke-width="1" color="gray"><path id="path4469" stroke="gray" stroke-dasharray="2 4" d="M60.5,186.8 L578.9,186.8" class="gridline"/></g><g id="g4471" fill="none" stroke="currentColor" stroke-linecap="butt" stroke-linejoin="miter" stroke-width="1" color="#000"><path id="path4473" stroke="#000" d="M60.5,186.8 L68.0,186.8 M578.9,186.8 L571.4,186.8"/><g id="g4475" fill="#000" stroke="none" font-family="Verdana" font-size="10" text-anchor="end" transform="translate(53.5,190.5)"><text id="text4477"><tspan id="tspan4479" font-family="Verdana">100</tspan></text></g></g><g id="g4483" fill="none" stroke="currentColor" stroke-linecap="butt" stroke-linejoin="miter" stroke-width="1" color="gray"><path id="path4485" stroke="gray" stroke-dasharray="2 4" d="M60.5,129.2 L578.9,129.2" class="gridline"/></g><g id="g4487" fill="none" stroke="currentColor" stroke-linecap="butt" stroke-linejoin="miter" stroke-width="1" color="#000"><path id="path4489" stroke="#000" d="M60.5,129.2 L68.0,129.2 M578.9,129.2 L571.4,129.2"/><g id="g4491" fill="#000" stroke="none" font-family="Verdana" font-size="10" text-anchor="end" transform="translate(53.5,132.9)"><text id="text4493"><tspan id="tspan4495" font-family="Verdana">120</tspan></text></g></g><g id="g4499" fill="none" stroke="currentColor" stroke-linecap="butt" stroke-linejoin="miter" stroke-width="1" color="gray"><path id="path4501" stroke="gray" stroke-dasharray="2 4" d="M60.5,71.7 L578.9,71.7" class="gridline"/></g><g id="g4503" fill="none" stroke="currentColor" stroke-linecap="butt" stroke-linejoin="miter" stroke-width="1" color="#000"><path id="path4505" stroke="#000" d="M60.5,71.7 L68.0,71.7 M578.9,71.7 L571.4,71.7"/><g id="g4507" fill="#000" stroke="none" font-family="Verdana" font-size="10" text-anchor="end" transform="translate(53.5,75.4)"><text id="text4509"><tspan id="tspan4511" font-family="Verdana">140</tspan></text></g></g><g id="g4515" fill="none" stroke="currentColor" stroke-linecap="butt" stroke-linejoin="miter" stroke-width="1" color="gray"><path id="path4517" stroke="gray" stroke-dasharray="2 4" d="M60.5,14.1 L578.9,14.1" class="gridline"/></g><g id="g4519" fill="none" stroke="currentColor" stroke-linecap="butt" stroke-linejoin="miter" stroke-width="1" color="#000"><path id="path4521" stroke="#000" d="M60.5,14.1 L68.0,14.1 M578.9,14.1 L571.4,14.1"/><g id="g4523" fill="#000" stroke="none" font-family="Verdana" font-size="10" text-anchor="end" transform="translate(53.5,17.8)"><text id="text4525"><tspan id="tspan4527" font-family="Verdana">160</tspan></text></g></g><g id="g4531" fill="none" stroke="currentColor" stroke-linecap="butt" stroke-linejoin="miter" stroke-width="1" color="gray"><path id="path4533" stroke="gray" stroke-dasharray="2 4" d="M60.5,417.0 L60.5,14.1" class="gridline"/></g><g id="g4535" fill="none" stroke="currentColor" stroke-linecap="butt" stroke-linejoin="miter" stroke-width="1" color="#000"><path id="path4537" stroke="#000" d="M60.5,417.0 L60.5,409.5 M60.5,14.1 L60.5,21.6"/><g id="g4539" fill="#000" stroke="none" font-family="Verdana" font-size="10" text-anchor="middle" transform="translate(60.5,435.7)"><text id="text4541"><tspan id="tspan4543" font-family="Verdana">0</tspan></text></g></g><g id="g4547" fill="none" stroke="currentColor" stroke-linecap="butt" stroke-linejoin="miter" stroke-width="1" color="gray"><path id="path4549" stroke="gray" stroke-dasharray="2 4" d="M125.3,417.0 L125.3,14.1" class="gridline"/></g><g id="g4551" fill="none" stroke="currentColor" stroke-linecap="butt" stroke-linejoin="miter" stroke-width="1" color="#000"><path id="path4553" stroke="#000" d="M125.3,417.0 L125.3,409.5 M125.3,14.1 L125.3,21.6"/><g id="g4555" fill="#000" stroke="none" font-family="Verdana" font-size="10" text-anchor="middle" transform="translate(125.3,435.7)"><text id="text4557"><tspan id="tspan4559" font-family="Verdana">1</tspan></text></g></g><g id="g4563" fill="none" stroke="currentColor" stroke-linecap="butt" stroke-linejoin="miter" stroke-width="1" color="gray"><path id="path4565" stroke="gray" stroke-dasharray="2 4" d="M190.1,417.0 L190.1,14.1" class="gridline"/></g><g id="g4567" fill="none" stroke="currentColor" stroke-linecap="butt" stroke-linejoin="miter" stroke-width="1" color="#000"><path id="path4569" stroke="#000" d="M190.1,417.0 L190.1,409.5 M190.1,14.1 L190.1,21.6"/><g id="g4571" fill="#000" stroke="none" font-family="Verdana" font-size="10" text-anchor="middle" transform="translate(190.1,435.7)"><text id="text4573"><tspan id="tspan4575" font-family="Verdana">2</tspan></text></g></g><g id="g4579" fill="none" stroke="currentColor" stroke-linecap="butt" stroke-linejoin="miter" stroke-width="1" color="gray"><path id="path4581" stroke="gray" stroke-dasharray="2 4" d="M254.9,417.0 L254.9,14.1" class="gridline"/></g><g id="g4583" fill="none" stroke="currentColor" stroke-linecap="butt" stroke-linejoin="miter" stroke-width="1" color="#000"><path id="path4585" stroke="#000" d="M254.9,417.0 L254.9,409.5 M254.9,14.1 L254.9,21.6"/><g id="g4587" fill="#000" stroke="none" font-family="Verdana" font-size="10" text-anchor="middle" transform="translate(254.9,435.7)"><text id="text4589"><tspan id="tspan4591" font-family="Verdana">3</tspan></text></g></g><g id="g4595" fill="none" stroke="currentColor" stroke-linecap="butt" stroke-linejoin="miter" stroke-width="1" color="gray"><path id="path4597" stroke="gray" stroke-dasharray="2 4" d="M319.7,417.0 L319.7,36.6 M319.7,21.6 L319.7,14.1" class="gridline"/></g><g id="g4599" fill="none" stroke="currentColor" stroke-linecap="butt" stroke-linejoin="miter" stroke-width="1" color="#000"><path id="path4601" stroke="#000" d="M319.7,417.0 L319.7,409.5 M319.7,14.1 L319.7,21.6"/><g id="g4603" fill="#000" stroke="none" font-family="Verdana" font-size="10" text-anchor="middle" transform="translate(319.7,435.7)"><text id="text4605"><tspan id="tspan4607" font-family="Verdana">4</tspan></text></g></g><g id="g4611" fill="none" stroke="currentColor" stroke-linecap="butt" stroke-linejoin="miter" stroke-width="1" color="gray"><path id="path4613" stroke="gray" stroke-dasharray="2 4" d="M384.5,417.0 L384.5,36.6 M384.5,21.6 L384.5,14.1" class="gridline"/></g><g id="g4615" fill="none" stroke="currentColor" stroke-linecap="butt" stroke-linejoin="miter" stroke-width="1" color="#000"><path id="path4617" stroke="#000" d="M384.5,417.0 L384.5,409.5 M384.5,14.1 L384.5,21.6"/><g id="g4619" fill="#000" stroke="none" font-family="Verdana" font-size="10" text-anchor="middle" transform="translate(384.5,435.7)"><text id="text4621"><tspan id="tspan4623" font-family="Verdana">5</tspan></text></g></g><g id="g4627" fill="none" stroke="currentColor" stroke-linecap="butt" stroke-linejoin="miter" stroke-width="1" color="gray"><path id="path4629" stroke="gray" stroke-dasharray="2 4" d="M449.3,417.0 L449.3,36.6 M449.3,21.6 L449.3,14.1" class="gridline"/></g><g id="g4631" fill="none" stroke="currentColor" stroke-linecap="butt" stroke-linejoin="miter" stroke-width="1" color="#000"><path id="path4633" stroke="#000" d="M449.3,417.0 L449.3,409.5 M449.3,14.1 L449.3,21.6"/><g id="g4635" fill="#000" stroke="none" font-family="Verdana" font-size="10" text-anchor="middle" transform="translate(449.3,435.7)"><text id="text4637"><tspan id="tspan4639" font-family="Verdana">6</tspan></text></g></g><g id="g4643" fill="none" stroke="currentColor" stroke-linecap="butt" stroke-linejoin="miter" stroke-width="1" color="gray"><path id="path4645" stroke="gray" stroke-dasharray="2 4" d="M514.1,417.0 L514.1,36.6 M514.1,21.6 L514.1,14.1" class="gridline"/></g><g id="g4647" fill="none" stroke="currentColor" stroke-linecap="butt" stroke-linejoin="miter" stroke-width="1" color="#000"><path id="path4649" stroke="#000" d="M514.1,417.0 L514.1,409.5 M514.1,14.1 L514.1,21.6"/><g id="g4651" fill="#000" stroke="none" font-family="Verdana" font-size="10" text-anchor="middle" transform="translate(514.1,435.7)"><text id="text4653"><tspan id="tspan4655" font-family="Verdana">7</tspan></text></g></g><g id="g4659" fill="none" stroke="currentColor" stroke-linecap="butt" stroke-linejoin="miter" stroke-width="1" color="gray"><path id="path4661" stroke="gray" stroke-dasharray="2 4" d="M578.9,417.0 L578.9,14.1" class="gridline"/></g><g id="g4663" fill="none" stroke="currentColor" stroke-linecap="butt" stroke-linejoin="miter" stroke-width="1" color="#000"><path id="path4665" stroke="#000" d="M578.9,417.0 L578.9,409.5 M578.9,14.1 L578.9,21.6"/><g id="g4667" fill="#000" stroke="none" font-family="Verdana" font-size="10" text-anchor="middle" transform="translate(578.9,435.7)"><text id="text4669"><tspan id="tspan4671" font-family="Verdana">8</tspan></text></g></g><g id="g4675" fill="none" stroke="currentColor" stroke-linecap="butt" stroke-linejoin="miter" stroke-width="1" color="#000"><path id="path4677" stroke="#000" d="M60.5,14.1 L60.5,417.0 L578.9,417.0 L578.9,14.1 L60.5,14.1 Z"/></g><g id="g4679" fill="none" stroke="currentColor" stroke-linecap="butt" stroke-linejoin="miter" stroke-width="1" color="#000"><g id="g4681" fill="#000" stroke="none" font-family="Verdana" font-size="10" text-anchor="middle" transform="translate(14.7,215.6) rotate(270)"><text id="text4683"><tspan id="tspan4685" font-family="Verdana">Distance [m]</tspan></text></g></g><g id="g4687" fill="none" stroke="currentColor" stroke-linecap="butt" stroke-linejoin="miter" stroke-width="1" color="#000"><g id="g4689" fill="#000" stroke="none" font-family="Verdana" font-size="10" text-anchor="middle" transform="translate(319.7,458.2)"><text id="text4691">Acceleration [m/s^2]</text></g><flowRoot style="fill:#000;stroke:none;stroke-opacity:1;stroke-width:1px;stroke-linejoin:miter;stroke-linecap:butt;fill-opacity:1;font-family:sans-serif;font-style:normal;font-weight:400;font-size:16.25px;line-height:125%;letter-spacing:0;word-spacing:0" id="flowRoot5274" xml:space="preserve"><flowRegion id="flowRegion5276"><rect id="rect5278" width="1017.966" height="633.559" x="-153.559" y="-69.153"/></flowRegion><flowPara id="flowPara5280"/></flowRoot></g><g id="gnuplot_plot_1"><title id="title4702">Required Safety Distance at 50 km/h</title><g id="g4704" fill="none" stroke="currentColor" stroke-linecap="butt" stroke-linejoin="miter" stroke-width="1" color="#000"><g id="g4706" fill="#000" stroke="none" font-family="Verdana" font-size="10" text-anchor="end" transform="translate(522.4,32.8)"><text id="text4708"><tspan id="tspan4710" font-family="Verdana">Required Safety Distance at 50 km/h</tspan></text></g></g><g id="g4712" fill="none" stroke="currentColor" stroke-linecap="butt" stroke-linejoin="miter" stroke-width="1" color="#000"><path id="path4714" stroke="#9400D3" d="M529.4,29.1 L564.9,29.1 M60.5,359.9 L65.7,357.8 L71.0,355.7 L76.2,353.6 L81.4,351.4 L86.7,349.3 L91.9,347.1 L97.2,344.9 L102.4,342.7 L107.6,340.4 L112.9,338.2 L118.1,335.9 L123.3,333.6 L128.6,331.3 L133.8,329.0 L139.0,326.6 L144.3,324.2 L149.5,321.8 L154.8,319.4 L160.0,317.0 L165.2,314.6 L170.5,312.1 L175.7,309.6 L180.9,307.1 L186.2,304.6 L191.4,302.0 L196.6,299.5 L201.9,296.9 L207.1,294.3 L212.4,291.7 L217.6,289.1 L222.8,286.4 L228.1,283.7 L233.3,281.0 L238.5,278.3 L243.8,275.6 L249.0,272.9 L254.2,270.1 L259.5,267.3 L264.7,264.5 L270.0,261.7 L275.2,258.8 L280.4,256.0 L285.7,253.1 L290.9,250.2 L296.1,247.3 L301.4,244.4 L306.6,241.4 L311.8,238.4 L317.1,235.4 L322.3,232.4 L327.6,229.4 L332.8,226.3 L338.0,223.3 L343.3,220.2 L348.5,217.1 L353.7,214.0 L359.0,210.8 L364.2,207.7 L369.4,204.5 L374.7,201.3 L379.9,198.1 L385.2,194.8 L390.4,191.6 L395.6,188.3 L400.9,185.0 L406.1,181.7 L411.3,178.4 L416.6,175.0 L421.8,171.7 L427.0,168.3 L432.3,164.9 L437.5,161.4 L442.8,158.0 L448.0,154.5 L453.2,151.1 L458.5,147.6 L463.7,144.0 L468.9,140.5 L474.2,137.0 L479.4,133.4 L484.6,129.8 L489.9,126.2 L495.1,122.5 L500.4,118.9 L505.6,115.2 L510.8,111.5 L516.1,107.8 L521.3,104.1 L526.5,100.4 L531.8,96.6 L537.0,92.8 L542.2,89.0 L547.5,85.2 L552.7,81.4 L558.0,77.5 L563.2,73.6 L568.4,69.7 L573.7,65.8 L578.9,61.9"/></g></g><g id="g4722" fill="none" stroke="currentColor" stroke-linecap="butt" stroke-linejoin="miter" stroke-width="1" color="#000"><path id="path4724" stroke="#000" d="M60.5,14.1 L60.5,417.0 L578.9,417.0 L578.9,14.1 L60.5,14.1 Z"/></g></g></svg>